<svg width="235" height="20" viewBox="0 0 235 20" fill="none" xmlns="http://www.w3.org/2000/svg">
<path d="M31.2515 5.34274H29.4503L28.4345 6.98995H30.2348L31.2515 5.34274ZM35.9241 9.67684C34.9805 9.75489 33.3134 10.599 32.4054 12.4433C31.4974 14.2876 31.4941 15.4261 31.4941 15.4261C31.4941 15.4261 31.973 14.9011 32.7071 14.3515C33.4412 13.8018 33.9875 13.6065 33.9875 13.6065C33.9875 13.6065 34.1238 12.9294 34.4628 12.2212C34.7925 11.5323 35.3156 10.8151 35.9629 10.6523C37.275 10.322 36.6467 12.7169 35.683 14.2785C35.1649 15.1178 33.3276 17.5299 31.7458 17.5299C30.1639 17.5299 29.8587 16.0047 30.1923 14.5787C30.5256 13.153 30.9869 11.3415 33.2947 8.05012C35.6025 4.75871 38.1005 2.80743 39.5464 1.98744C41.0314 1.14576 41.6366 1.51462 41.6366 1.51462C41.6366 1.51462 39.7407 2.68237 38.6622 4.08729C37.6309 5.43013 37.0156 6.94113 37.4941 7.68156C37.9498 8.38704 39.556 8.4003 41.3247 5.84661C43.0704 3.32577 42.6295 1.82682 42.6295 1.82682C42.6295 1.82682 42.8405 1.75811 42.9821 1.73913C43.8334 1.62582 44.5154 1.85033 45.5714 2.39186C46.6776 2.95932 47.739 3.86941 49.1934 4.61406C49.6312 4.1343 50.1185 3.62471 50.6311 3.12747C48.6705 2.17308 47.1821 0.81276 45.2592 0.682272C43.5854 0.568963 42.2658 1.17891 42.2658 1.17891C42.2658 1.17891 41.7553 0.483679 40.1804 0.7106C38.6055 0.937822 33.7534 2.96655 29.6251 9.5777C25.8925 15.5551 27.6512 18.9806 30.3342 18.9414C33.2426 18.8986 36.0093 15.6642 36.9457 12.9969C37.882 10.3296 36.7754 9.60663 35.9241 9.67684ZM41.6335 4.12255C41.1447 5.31411 40.4251 6.14676 39.7169 6.78262C38.8086 7.59839 38.3102 7.57097 38.0944 7.40703C37.5309 6.9779 38.287 5.35962 39.5994 3.91251C40.9064 2.47112 42.0316 2.0227 42.0316 2.0227C42.0316 2.03958 42.2188 2.69382 41.6335 4.12255ZM57.8293 2.38493C56.4985 3.24109 54.6533 4.01647 52.8823 3.84561C52.4344 4.3106 51.9541 4.84641 51.4722 5.43255C54.546 6.03887 57.2347 4.13461 58.6662 2.51211C59.5591 1.50045 60 0.59729 60 0.59729C60 0.59729 59.1474 1.53692 57.8293 2.38493Z" fill="#F40009"/>
<path d="M56.3753 9.89703H54.4813L54.1736 10.3726C54.1736 10.3726 53.7873 9.67553 53.133 9.68668C52.012 9.70597 50.89 10.5618 49.5864 12.0463C48.6308 13.1339 47.0468 15.5553 47.0468 15.5553C47.0468 15.5553 45.8315 17.4282 45.2167 17.2815C44.1686 17.031 46.0964 13.1529 46.0964 13.1529C46.0964 13.1529 47.1098 12.527 48.4231 11.4219C49.25 10.7264 50.2014 9.76956 51.076 8.88266C51.8712 8.07593 52.8085 6.98051 53.6993 5.78051C53.4711 5.81667 53.2373 5.84108 52.9989 5.85283C52.2 6.90637 51.3472 7.84932 50.6218 8.59879C49.5421 9.71441 48.5488 10.6272 47.827 11.2094C47.1354 11.7669 46.6918 12.018 46.6918 12.018C46.6918 12.018 48.0112 9.30848 50.2102 6.31481C52.4092 3.32144 55.4881 0.540531 55.2467 1.85987C55.1777 2.23867 54.9424 2.78202 54.5871 3.42692C54.8372 3.37478 55.0801 3.30969 55.3145 3.23556C55.8443 2.14194 56.0248 1.24058 55.6294 0.980209C54.016 -0.0823714 49.9121 4.31441 47.8548 6.8681C45.7977 9.42179 43.9359 13.3243 43.9359 13.3243C43.9359 13.3243 43.6141 13.4594 43.2582 13.5269C43.0337 13.5697 42.9378 13.5603 42.9011 13.5458C42.8827 13.5383 42.8806 13.5257 42.8806 13.5257C42.8806 13.5257 44.6902 10.1426 42.8375 9.69391C41.0495 9.26117 37.9516 12.5689 36.8502 14.8697C36.0943 16.4482 35.6679 18.4353 36.9641 18.9085C38.3678 19.4211 40.7521 16.8583 41.3126 16.1137C41.8731 15.3687 42.5729 14.1302 42.5729 14.1302C42.5729 14.1302 42.9152 14.1121 43.1024 14.0847C43.4604 14.0319 43.6279 13.9879 43.6279 13.9879C43.6279 13.9879 43.3959 14.5958 43.1449 15.3663C42.6769 16.8032 42.2547 18.8591 43.9395 18.9558C45.013 19.017 46.5879 17.0783 46.5879 17.0783C46.5879 17.0783 46.1642 18.8021 47.5573 18.9558C48.5859 19.0691 50.0827 17.48 50.0827 17.48C50.0827 17.48 49.7566 18.8491 50.7993 18.9697C51.6919 19.073 52.9591 18.0264 53.9982 16.8749C55.1328 15.6177 56.0031 14.2408 56.0031 14.2408H55.3435C55.3435 14.2408 53.8834 16.4569 52.8582 17.05C52.0165 17.537 52.3049 16.7568 52.5601 16.3479C52.8416 15.8967 56.3744 9.89703 56.3744 9.89733L56.3753 9.89703ZM41.9449 14.0711C41.919 14.1305 41.4449 14.9553 40.9377 15.6038C40.3914 16.3026 39.3912 17.3544 38.79 17.132C37.85 16.7842 38.8843 14.7365 39.5605 13.7432C40.2368 12.75 40.3136 12.6828 40.3326 12.6568C40.3516 12.6309 40.3706 12.6071 40.3872 12.6379C40.4037 12.6686 40.6189 13.0766 41.0438 13.4307C41.4705 13.7863 41.881 13.9741 41.9141 13.9858C41.9473 13.9976 41.9711 14.0117 41.9449 14.0708V14.0711ZM42.3677 13.3331C42.3083 13.4319 42.2658 13.4368 42.1426 13.4039C41.9256 13.3451 41.0266 12.9296 41.0336 12.0077C41.0399 11.1094 42.3062 10.2294 42.8028 10.6055C43.2663 10.9563 43.0448 11.8531 42.87 12.3106C42.6955 12.7677 42.4066 13.2683 42.3677 13.3331ZM50.972 15.5553C50.7219 15.8982 50.5127 16.208 50.3241 16.4256C49.9209 16.8912 49.6578 17.1079 49.4233 17.1651C49.3052 17.1938 49.1587 17.1868 49.0617 17.1281C48.7175 16.9186 48.9586 16.1032 49.5577 15.0068C50.1059 14.0048 50.7393 13.0022 51.7805 11.848C52.8259 10.6893 53.2258 10.6335 53.5184 10.6468C53.7647 10.6573 53.7996 10.9162 53.7996 10.9162C53.7996 10.9162 53.7821 10.9762 53.743 11.044C53.3979 11.6422 51.6597 14.6123 50.9717 15.5553H50.972ZM23.0342 17.0048C21.8857 16.2951 20.4124 15.8398 18.7197 15.825C14.3591 15.787 9.61119 17.9056 6.39542 17.9342C2.60256 17.9673 2.41361 15.0493 2.69477 13.447C3.2999 9.99497 5.74841 6.70175 7.3227 4.96534C8.89728 3.22893 10.5472 1.88156 11.919 1.53712C13.2907 1.19267 13.1618 2.23596 12.9939 2.3785C12.8206 2.38212 12.4882 2.41949 12.2996 2.54997C12.0043 2.75369 11.6098 3.12677 11.5851 3.71833C11.5426 4.62963 12.7203 4.78935 13.5716 2.88116C14.1523 1.57961 13.2314 0.696332 12.4665 0.61135C11.4175 0.494424 9.81431 0.859064 7.9007 2.0889C4.57011 4.22913 0.115168 8.98181 0.00155633 14.2549C-0.0632352 17.2631 1.90191 18.9558 4.59814 18.9558C7.29437 18.9558 10.9549 17.3047 14.5293 17.2625C16.7425 17.2435 18.1748 18.0192 18.9002 19.2825C18.9002 19.2825 19.621 18.0834 21.2264 18.0192C22.8145 17.9553 24.563 18.4004 25.9983 19.4093C25.5195 18.7174 24.1658 17.704 23.0339 17.0048H23.0342Z" fill="#F40009"/>
<path d="M13.1036 5.15829C11.2756 4.6924 8.2397 7.8042 6.96044 10.3368C6.17149 11.899 5.82553 13.8624 7.23015 14.3732C8.63477 14.884 11.0179 12.323 11.5784 11.5784C12.1389 10.8334 13.0563 9.34141 13.0563 9.34141C13.0563 9.34141 13.3377 9.28717 13.5222 9.24438C13.7066 9.20158 14.0046 9.1166 14.0046 9.1166C14.0046 9.1166 13.659 9.73257 13.3471 10.3639C12.9773 11.1125 11.9726 13.6044 13.9124 14.3518C15.7658 15.0657 18.4041 12.0886 18.5428 12.0322C18.5428 12.0322 17.7574 14.0609 18.9773 14.3732C20.3159 14.7155 21.7829 13.0005 21.7829 13.0005C21.7829 13.0005 21.474 14.2879 22.517 14.4087C24.3848 14.6248 27.6886 9.84739 27.6886 9.84739H27.0286C27.0286 9.84739 25.3474 12.0108 24.5388 12.4577C23.7303 12.9046 24.0211 12.1106 24.2408 11.7556C24.521 11.3038 28.0927 5.33579 28.0927 5.33579H26.1987L25.979 5.68325C25.979 5.68325 25.5888 5.08747 24.9363 5.12997C23.0381 5.25382 20.7794 8.27944 19.7861 9.61294C18.7932 10.9467 16.6508 13.4932 15.5229 13.0394C14.2936 12.5445 15.5159 10.2729 16.3245 8.9391C17.2047 7.48717 18.7649 6.0491 19.3817 6.03795C20.1408 6.02379 19.8428 6.71178 19.8428 6.71178C19.8428 6.71178 19.2753 6.64096 18.864 7.15869C18.5729 7.52484 18.3318 8.05945 18.6084 8.35025C19.0554 8.82007 19.6373 8.34302 19.9847 7.81083C21.0681 6.15247 20.2755 5.27853 19.4245 5.15106C17.6116 4.87894 15.9414 7.20812 14.6718 8.07361C13.791 8.67361 13.423 8.6269 13.423 8.6269C13.423 8.6269 14.9512 5.62901 13.1039 5.15799L13.1036 5.15829ZM21.311 10.5212C21.8592 9.51891 22.6059 8.55126 23.5778 7.3383C24.5497 6.12534 25.0334 6.0271 25.326 6.04036C25.5722 6.05121 25.6071 6.30977 25.6071 6.30977C25.6071 6.30977 23.4955 9.98903 22.7295 11.039C22.4794 11.3819 22.2654 11.6724 22.0768 11.8903C21.6735 12.3559 21.3806 12.581 21.1546 12.637C21.0365 12.666 20.89 12.6587 20.7927 12.5997C20.4485 12.3902 20.711 11.6173 21.3107 10.5212H21.311ZM12.3493 9.32725C12.3231 9.38632 11.7201 10.3835 11.2132 11.032C10.6671 11.7309 9.65788 12.7868 9.05667 12.5644C8.11674 12.2167 9.11935 10.1831 9.7956 9.19013C10.4718 8.19686 10.571 8.06909 10.5903 8.04347C10.6093 8.01726 10.6279 7.99345 10.6445 8.02449C10.6611 8.05523 10.8763 8.49762 11.3422 8.79536C11.8081 9.0934 12.2857 9.23051 12.3188 9.24227C12.352 9.25402 12.3758 9.26849 12.3496 9.32725H12.3493ZM13.1355 7.77497C12.9607 8.23273 12.8046 8.52112 12.7724 8.58923C12.7206 8.69832 12.5907 8.66336 12.5907 8.66336C12.4427 8.65673 11.2924 8.39425 11.2991 7.4724C11.3054 6.57406 12.572 5.6941 13.0683 6.0702C13.5318 6.42097 13.3103 7.31781 13.1355 7.77497ZM54.9502 17.8623C54.8396 17.7996 54.7166 17.7685 54.5813 17.7685C54.446 17.7685 54.323 17.7999 54.2124 17.8623C54.1018 17.9249 54.015 18.0099 53.9515 18.1181C53.8882 18.226 53.8562 18.3435 53.8562 18.4701C53.8562 18.5967 53.8879 18.7163 53.9515 18.8236C54.0147 18.9306 54.1018 19.0155 54.2124 19.0779C54.323 19.1406 54.446 19.1716 54.5813 19.1716C54.7166 19.1716 54.8396 19.1403 54.9502 19.0779C55.0608 19.0155 55.1475 18.9306 55.2111 18.8236C55.2744 18.7166 55.3064 18.5988 55.3064 18.4701C55.3064 18.3414 55.2747 18.226 55.2111 18.1181C55.1478 18.0102 55.0608 17.9249 54.9502 17.8623ZM55.08 18.7606C55.0321 18.8462 54.9646 18.9134 54.8781 18.9625C54.7916 19.0113 54.6925 19.0357 54.5813 19.0357C54.4701 19.0357 54.3709 19.0113 54.2845 18.9625C54.198 18.9137 54.1308 18.8465 54.0826 18.7606C54.0346 18.675 54.0105 18.578 54.0105 18.4701C54.0105 18.3622 54.0346 18.2679 54.0826 18.1823C54.1305 18.0967 54.1983 18.0295 54.2857 17.9804C54.3731 17.9313 54.4716 17.9072 54.5813 17.9072C54.691 17.9072 54.7895 17.9316 54.8769 17.9804C54.9643 18.0292 55.0321 18.0964 55.08 18.1823C55.128 18.2679 55.1521 18.364 55.1521 18.4701C55.1521 18.5762 55.128 18.675 55.08 18.7606Z" fill="#F40009"/>
<path d="M54.8538 18.4586C54.8742 18.4251 54.8845 18.3877 54.8845 18.3468C54.8845 18.2901 54.8661 18.2428 54.8293 18.2042C54.7926 18.1656 54.7432 18.1464 54.6817 18.1464H54.314V18.7813H54.4759V18.5499H54.5991L54.7483 18.7813H54.9333L54.7664 18.5345C54.804 18.5173 54.8333 18.492 54.8538 18.4586ZM54.6995 18.3917C54.6874 18.4028 54.6711 18.4082 54.6506 18.4082H54.4759V18.285H54.6506C54.6711 18.285 54.6874 18.2907 54.6995 18.3016C54.7115 18.3127 54.7175 18.3278 54.7175 18.3465C54.7175 18.3651 54.7115 18.3802 54.6995 18.3914V18.3917Z" fill="#F40009"/>
<path d="M70.585 9.6C70.585 8.95 70.695 8.315 70.915 7.695C71.145 7.065 71.475 6.495 71.905 5.985C72.345 5.465 72.88 5.055 73.51 4.755C74.14 4.445 74.855 4.29 75.655 4.29C76.605 4.29 77.42 4.51 78.1 4.95C78.78 5.38 79.285 5.935 79.615 6.615L78.55 7.305C78.34 6.855 78.07 6.5 77.74 6.24C77.42 5.97 77.07 5.78 76.69 5.67C76.32 5.56 75.955 5.505 75.595 5.505C75.005 5.505 74.48 5.625 74.02 5.865C73.57 6.105 73.19 6.425 72.88 6.825C72.57 7.225 72.335 7.675 72.175 8.175C72.025 8.665 71.95 9.16 71.95 9.66C71.95 10.21 72.04 10.74 72.22 11.25C72.41 11.76 72.67 12.21 73 12.6C73.33 12.99 73.72 13.3 74.17 13.53C74.62 13.76 75.11 13.875 75.64 13.875C76.01 13.875 76.39 13.81 76.78 13.68C77.17 13.55 77.535 13.35 77.875 13.08C78.215 12.8 78.485 12.44 78.685 12L79.81 12.615C79.59 13.145 79.25 13.595 78.79 13.965C78.33 14.335 77.815 14.615 77.245 14.805C76.685 14.995 76.13 15.09 75.58 15.09C74.85 15.09 74.18 14.935 73.57 14.625C72.96 14.305 72.43 13.885 71.98 13.365C71.54 12.835 71.195 12.245 70.945 11.595C70.705 10.935 70.585 10.27 70.585 9.6ZM84.7096 15.15C84.1196 15.15 83.5846 15.045 83.1046 14.835C82.6246 14.615 82.2096 14.32 81.8596 13.95C81.5096 13.57 81.2396 13.135 81.0496 12.645C80.8596 12.155 80.7646 11.64 80.7646 11.1C80.7646 10.55 80.8596 10.03 81.0496 9.54C81.2396 9.05 81.5096 8.62 81.8596 8.25C82.2096 7.87 82.6246 7.575 83.1046 7.365C83.5946 7.145 84.1296 7.035 84.7096 7.035C85.2996 7.035 85.8346 7.145 86.3146 7.365C86.7946 7.575 87.2096 7.87 87.5596 8.25C87.9196 8.62 88.1946 9.05 88.3846 9.54C88.5746 10.03 88.6696 10.55 88.6696 11.1C88.6696 11.64 88.5746 12.155 88.3846 12.645C88.1946 13.135 87.9246 13.57 87.5746 13.95C87.2246 14.32 86.8046 14.615 86.3146 14.835C85.8346 15.045 85.2996 15.15 84.7096 15.15ZM82.1146 11.115C82.1146 11.655 82.2296 12.145 82.4596 12.585C82.6996 13.025 83.0146 13.375 83.4046 13.635C83.7946 13.885 84.2296 14.01 84.7096 14.01C85.1896 14.01 85.6246 13.88 86.0146 13.62C86.4146 13.36 86.7296 13.01 86.9596 12.57C87.1996 12.12 87.3196 11.625 87.3196 11.085C87.3196 10.545 87.1996 10.055 86.9596 9.615C86.7296 9.175 86.4146 8.825 86.0146 8.565C85.6246 8.305 85.1896 8.175 84.7096 8.175C84.2296 8.175 83.7946 8.31 83.4046 8.58C83.0146 8.84 82.6996 9.19 82.4596 9.63C82.2296 10.07 82.1146 10.565 82.1146 11.115ZM93.7341 15.15C93.1441 15.15 92.6041 15.045 92.1141 14.835C91.6341 14.615 91.2141 14.315 90.8541 13.935C90.5041 13.555 90.2291 13.12 90.0291 12.63C89.8391 12.14 89.7441 11.62 89.7441 11.07C89.7441 10.33 89.9091 9.655 90.2391 9.045C90.5691 8.435 91.0341 7.95 91.6341 7.59C92.2341 7.22 92.9291 7.035 93.7191 7.035C94.4891 7.035 95.1591 7.21 95.7291 7.56C96.3091 7.9 96.7391 8.36 97.0191 8.94L95.7291 9.345C95.5291 8.975 95.2491 8.69 94.8891 8.49C94.5291 8.28 94.1291 8.175 93.6891 8.175C93.2091 8.175 92.7691 8.3 92.3691 8.55C91.9791 8.8 91.6691 9.145 91.4391 9.585C91.2091 10.015 91.0941 10.51 91.0941 11.07C91.0941 11.62 91.2091 12.12 91.4391 12.57C91.6791 13.01 91.9941 13.36 92.3841 13.62C92.7841 13.88 93.2241 14.01 93.7041 14.01C94.0141 14.01 94.3091 13.955 94.5891 13.845C94.8791 13.735 95.1291 13.59 95.3391 13.41C95.5591 13.22 95.7091 13.015 95.7891 12.795L97.0791 13.185C96.9191 13.565 96.6741 13.905 96.3441 14.205C96.0241 14.495 95.6391 14.725 95.1891 14.895C94.7491 15.065 94.2641 15.15 93.7341 15.15ZM97.9598 12.735C97.9598 12.235 98.0998 11.805 98.3798 11.445C98.6698 11.075 99.0648 10.79 99.5648 10.59C100.065 10.39 100.645 10.29 101.305 10.29C101.655 10.29 102.025 10.32 102.415 10.38C102.805 10.43 103.15 10.51 103.45 10.62V10.05C103.45 9.45 103.27 8.98 102.91 8.64C102.55 8.29 102.04 8.115 101.38 8.115C100.95 8.115 100.535 8.195 100.135 8.355C99.7448 8.505 99.3298 8.725 98.8898 9.015L98.4098 8.085C98.9198 7.735 99.4298 7.475 99.9398 7.305C100.45 7.125 100.98 7.035 101.53 7.035C102.53 7.035 103.32 7.315 103.9 7.875C104.48 8.425 104.77 9.195 104.77 10.185V13.5C104.77 13.66 104.8 13.78 104.86 13.86C104.93 13.93 105.04 13.97 105.19 13.98V15C105.06 15.02 104.945 15.035 104.845 15.045C104.755 15.055 104.68 15.06 104.62 15.06C104.31 15.06 104.075 14.975 103.915 14.805C103.765 14.635 103.68 14.455 103.66 14.265L103.63 13.77C103.29 14.21 102.845 14.55 102.295 14.79C101.745 15.03 101.2 15.15 100.66 15.15C100.14 15.15 99.6748 15.045 99.2648 14.835C98.8548 14.615 98.5348 14.325 98.3048 13.965C98.0748 13.595 97.9598 13.185 97.9598 12.735ZM103.06 13.29C103.18 13.15 103.275 13.01 103.345 12.87C103.415 12.72 103.45 12.595 103.45 12.495V11.52C103.14 11.4 102.815 11.31 102.475 11.25C102.135 11.18 101.8 11.145 101.47 11.145C100.8 11.145 100.255 11.28 99.8348 11.55C99.4248 11.81 99.2198 12.17 99.2198 12.63C99.2198 12.88 99.2848 13.125 99.4148 13.365C99.5548 13.595 99.7548 13.785 100.015 13.935C100.285 14.085 100.615 14.16 101.005 14.16C101.415 14.16 101.805 14.08 102.175 13.92C102.545 13.75 102.84 13.54 103.06 13.29ZM106.4 9.6C106.4 8.95 106.51 8.315 106.73 7.695C106.96 7.065 107.29 6.495 107.72 5.985C108.16 5.465 108.695 5.055 109.325 4.755C109.955 4.445 110.67 4.29 111.47 4.29C112.42 4.29 113.235 4.51 113.915 4.95C114.595 5.38 115.1 5.935 115.43 6.615L114.365 7.305C114.155 6.855 113.885 6.5 113.555 6.24C113.235 5.97 112.885 5.78 112.505 5.67C112.135 5.56 111.77 5.505 111.41 5.505C110.82 5.505 110.295 5.625 109.835 5.865C109.385 6.105 109.005 6.425 108.695 6.825C108.385 7.225 108.15 7.675 107.99 8.175C107.84 8.665 107.765 9.16 107.765 9.66C107.765 10.21 107.855 10.74 108.035 11.25C108.225 11.76 108.485 12.21 108.815 12.6C109.145 12.99 109.535 13.3 109.985 13.53C110.435 13.76 110.925 13.875 111.455 13.875C111.825 13.875 112.205 13.81 112.595 13.68C112.985 13.55 113.35 13.35 113.69 13.08C114.03 12.8 114.3 12.44 114.5 12L115.625 12.615C115.405 13.145 115.065 13.595 114.605 13.965C114.145 14.335 113.63 14.615 113.06 14.805C112.5 14.995 111.945 15.09 111.395 15.09C110.665 15.09 109.995 14.935 109.385 14.625C108.775 14.305 108.245 13.885 107.795 13.365C107.355 12.835 107.01 12.245 106.76 11.595C106.52 10.935 106.4 10.27 106.4 9.6ZM120.525 15.15C119.935 15.15 119.4 15.045 118.92 14.835C118.44 14.615 118.025 14.32 117.675 13.95C117.325 13.57 117.055 13.135 116.865 12.645C116.675 12.155 116.58 11.64 116.58 11.1C116.58 10.55 116.675 10.03 116.865 9.54C117.055 9.05 117.325 8.62 117.675 8.25C118.025 7.87 118.44 7.575 118.92 7.365C119.41 7.145 119.945 7.035 120.525 7.035C121.115 7.035 121.65 7.145 122.13 7.365C122.61 7.575 123.025 7.87 123.375 8.25C123.735 8.62 124.01 9.05 124.2 9.54C124.39 10.03 124.485 10.55 124.485 11.1C124.485 11.64 124.39 12.155 124.2 12.645C124.01 13.135 123.74 13.57 123.39 13.95C123.04 14.32 122.62 14.615 122.13 14.835C121.65 15.045 121.115 15.15 120.525 15.15ZM117.93 11.115C117.93 11.655 118.045 12.145 118.275 12.585C118.515 13.025 118.83 13.375 119.22 13.635C119.61 13.885 120.045 14.01 120.525 14.01C121.005 14.01 121.44 13.88 121.83 13.62C122.23 13.36 122.545 13.01 122.775 12.57C123.015 12.12 123.135 11.625 123.135 11.085C123.135 10.545 123.015 10.055 122.775 9.615C122.545 9.175 122.23 8.825 121.83 8.565C121.44 8.305 121.005 8.175 120.525 8.175C120.045 8.175 119.61 8.31 119.22 8.58C118.83 8.84 118.515 9.19 118.275 9.63C118.045 10.07 117.93 10.565 117.93 11.115ZM126.115 4.05H127.435V12.975C127.435 13.405 127.495 13.67 127.615 13.77C127.735 13.87 127.88 13.92 128.05 13.92C128.26 13.92 128.46 13.9 128.65 13.86C128.84 13.81 129 13.76 129.13 13.71L129.34 14.79C129.12 14.88 128.86 14.955 128.56 15.015C128.26 15.075 127.995 15.105 127.765 15.105C127.255 15.105 126.85 14.96 126.55 14.67C126.26 14.38 126.115 13.975 126.115 13.455V4.05ZM129.762 12.735C129.762 12.235 129.902 11.805 130.182 11.445C130.472 11.075 130.867 10.79 131.367 10.59C131.867 10.39 132.447 10.29 133.107 10.29C133.457 10.29 133.827 10.32 134.217 10.38C134.607 10.43 134.952 10.51 135.252 10.62V10.05C135.252 9.45 135.072 8.98 134.712 8.64C134.352 8.29 133.842 8.115 133.182 8.115C132.752 8.115 132.337 8.195 131.937 8.355C131.547 8.505 131.132 8.725 130.692 9.015L130.212 8.085C130.722 7.735 131.232 7.475 131.742 7.305C132.252 7.125 132.782 7.035 133.332 7.035C134.332 7.035 135.122 7.315 135.702 7.875C136.282 8.425 136.572 9.195 136.572 10.185V13.5C136.572 13.66 136.602 13.78 136.662 13.86C136.732 13.93 136.842 13.97 136.992 13.98V15C136.862 15.02 136.747 15.035 136.647 15.045C136.557 15.055 136.482 15.06 136.422 15.06C136.112 15.06 135.877 14.975 135.717 14.805C135.567 14.635 135.482 14.455 135.462 14.265L135.432 13.77C135.092 14.21 134.647 14.55 134.097 14.79C133.547 15.03 133.002 15.15 132.462 15.15C131.942 15.15 131.477 15.045 131.067 14.835C130.657 14.615 130.337 14.325 130.107 13.965C129.877 13.595 129.762 13.185 129.762 12.735ZM134.862 13.29C134.982 13.15 135.077 13.01 135.147 12.87C135.217 12.72 135.252 12.595 135.252 12.495V11.52C134.942 11.4 134.617 11.31 134.277 11.25C133.937 11.18 133.602 11.145 133.272 11.145C132.602 11.145 132.057 11.28 131.637 11.55C131.227 11.81 131.022 12.17 131.022 12.63C131.022 12.88 131.087 13.125 131.217 13.365C131.357 13.595 131.557 13.785 131.817 13.935C132.087 14.085 132.417 14.16 132.807 14.16C133.217 14.16 133.607 14.08 133.977 13.92C134.347 13.75 134.642 13.54 134.862 13.29ZM138.727 16.215L139.027 14.88H138.577V13.32H139.822V14.88L139.372 16.215H138.727ZM150.965 13.8V15H145.58V13.8H147.71V7.95C147.62 8.07 147.48 8.2 147.29 8.34C147.1 8.47 146.885 8.595 146.645 8.715C146.405 8.835 146.165 8.935 145.925 9.015C145.685 9.085 145.465 9.12 145.265 9.12V7.86C145.485 7.86 145.725 7.8 145.985 7.68C146.255 7.55 146.515 7.4 146.765 7.23C147.015 7.06 147.225 6.9 147.395 6.75C147.575 6.6 147.68 6.495 147.71 6.435H149.06V13.8H150.965ZM155.317 16.845V13.83H155.482C155.702 13.83 155.902 13.765 156.082 13.635C156.272 13.505 156.437 13.28 156.577 12.96C156.727 12.63 156.847 12.18 156.937 11.61C157.027 11.04 157.087 10.315 157.117 9.435L157.192 7.17H162.517V13.83H163.582V16.845H162.412V15H156.487V16.845H155.317ZM157.327 13.83H161.197V8.34H158.362L158.317 9.555C158.287 10.405 158.227 11.12 158.137 11.7C158.057 12.27 157.947 12.725 157.807 13.065C157.677 13.405 157.517 13.66 157.327 13.83ZM168.514 15.15C167.924 15.15 167.384 15.045 166.894 14.835C166.414 14.615 165.994 14.32 165.634 13.95C165.284 13.57 165.009 13.135 164.809 12.645C164.619 12.155 164.524 11.635 164.524 11.085C164.524 10.345 164.694 9.67 165.034 9.06C165.374 8.45 165.844 7.96 166.444 7.59C167.054 7.22 167.749 7.035 168.529 7.035C169.319 7.035 170.004 7.225 170.584 7.605C171.174 7.975 171.629 8.465 171.949 9.075C172.279 9.675 172.444 10.325 172.444 11.025C172.444 11.125 172.439 11.225 172.429 11.325C172.429 11.415 172.424 11.485 172.414 11.535H165.919C165.959 12.045 166.099 12.5 166.339 12.9C166.589 13.29 166.909 13.6 167.299 13.83C167.689 14.05 168.109 14.16 168.559 14.16C169.039 14.16 169.489 14.04 169.909 13.8C170.339 13.56 170.634 13.245 170.794 12.855L171.934 13.17C171.764 13.55 171.509 13.89 171.169 14.19C170.839 14.49 170.444 14.725 169.984 14.895C169.534 15.065 169.044 15.15 168.514 15.15ZM165.874 10.62H171.214C171.174 10.11 171.029 9.66 170.779 9.27C170.529 8.88 170.209 8.575 169.819 8.355C169.429 8.135 168.999 8.025 168.529 8.025C168.069 8.025 167.644 8.135 167.254 8.355C166.864 8.575 166.544 8.88 166.294 9.27C166.054 9.66 165.914 10.11 165.874 10.62ZM173.897 15V7.17H175.217V10.41H179.297V7.17H180.617V15H179.297V11.58H175.217V15H173.897ZM182.73 15V7.17H184.05V9.84H186C186.92 9.84 187.615 10.075 188.085 10.545C188.565 11.005 188.805 11.61 188.805 12.36C188.805 12.86 188.7 13.31 188.49 13.71C188.29 14.11 187.99 14.425 187.59 14.655C187.19 14.885 186.69 15 186.09 15H182.73ZM184.05 13.965H185.91C186.28 13.965 186.575 13.895 186.795 13.755C187.025 13.605 187.195 13.41 187.305 13.17C187.415 12.93 187.47 12.67 187.47 12.39C187.47 12.12 187.42 11.87 187.32 11.64C187.22 11.41 187.055 11.225 186.825 11.085C186.595 10.945 186.28 10.875 185.88 10.875H184.05V13.965ZM194.024 15V7.17H195.344V10.41H199.424V7.17H200.744V15H199.424V11.58H195.344V15H194.024ZM202.257 12.735C202.257 12.235 202.397 11.805 202.677 11.445C202.967 11.075 203.362 10.79 203.862 10.59C204.362 10.39 204.942 10.29 205.602 10.29C205.952 10.29 206.322 10.32 206.712 10.38C207.102 10.43 207.447 10.51 207.747 10.62V10.05C207.747 9.45 207.567 8.98 207.207 8.64C206.847 8.29 206.337 8.115 205.677 8.115C205.247 8.115 204.832 8.195 204.432 8.355C204.042 8.505 203.627 8.725 203.187 9.015L202.707 8.085C203.217 7.735 203.727 7.475 204.237 7.305C204.747 7.125 205.277 7.035 205.827 7.035C206.827 7.035 207.617 7.315 208.197 7.875C208.777 8.425 209.067 9.195 209.067 10.185V13.5C209.067 13.66 209.097 13.78 209.157 13.86C209.227 13.93 209.337 13.97 209.487 13.98V15C209.357 15.02 209.242 15.035 209.142 15.045C209.052 15.055 208.977 15.06 208.917 15.06C208.607 15.06 208.372 14.975 208.212 14.805C208.062 14.635 207.977 14.455 207.957 14.265L207.927 13.77C207.587 14.21 207.142 14.55 206.592 14.79C206.042 15.03 205.497 15.15 204.957 15.15C204.437 15.15 203.972 15.045 203.562 14.835C203.152 14.615 202.832 14.325 202.602 13.965C202.372 13.595 202.257 13.185 202.257 12.735ZM207.357 13.29C207.477 13.15 207.572 13.01 207.642 12.87C207.712 12.72 207.747 12.595 207.747 12.495V11.52C207.437 11.4 207.112 11.31 206.772 11.25C206.432 11.18 206.097 11.145 205.767 11.145C205.097 11.145 204.552 11.28 204.132 11.55C203.722 11.81 203.517 12.17 203.517 12.63C203.517 12.88 203.582 13.125 203.712 13.365C203.852 13.595 204.052 13.785 204.312 13.935C204.582 14.085 204.912 14.16 205.302 14.16C205.712 14.16 206.102 14.08 206.472 13.92C206.842 13.75 207.137 13.54 207.357 13.29ZM213.622 15.105C212.862 15.105 212.217 14.965 211.687 14.685C211.167 14.395 210.767 13.995 210.487 13.485L211.567 13.005C211.747 13.325 212.002 13.575 212.332 13.755C212.672 13.935 213.082 14.025 213.562 14.025C214.132 14.025 214.582 13.9 214.912 13.65C215.242 13.4 215.407 13.065 215.407 12.645C215.407 12.265 215.272 11.96 215.002 11.73C214.742 11.49 214.372 11.365 213.892 11.355H213.097V10.485H213.937C214.147 10.485 214.332 10.435 214.492 10.335C214.662 10.225 214.792 10.08 214.882 9.9C214.982 9.72 215.032 9.52 215.032 9.3C215.032 8.95 214.907 8.67 214.657 8.46C214.407 8.24 214.032 8.13 213.532 8.13C213.122 8.13 212.777 8.21 212.497 8.37C212.227 8.53 212.007 8.77 211.837 9.09L210.832 8.55C211.082 8.08 211.442 7.715 211.912 7.455C212.392 7.185 212.952 7.05 213.592 7.05C214.102 7.05 214.552 7.135 214.942 7.305C215.342 7.465 215.652 7.7 215.872 8.01C216.102 8.32 216.217 8.695 216.217 9.135C216.217 9.505 216.127 9.85 215.947 10.17C215.777 10.48 215.522 10.715 215.182 10.875C215.652 11.015 216.012 11.26 216.262 11.61C216.512 11.95 216.637 12.355 216.637 12.825C216.637 13.305 216.507 13.715 216.247 14.055C215.987 14.395 215.632 14.655 215.182 14.835C214.732 15.015 214.212 15.105 213.622 15.105ZM217.608 12.735C217.608 12.235 217.748 11.805 218.028 11.445C218.318 11.075 218.713 10.79 219.213 10.59C219.713 10.39 220.293 10.29 220.953 10.29C221.303 10.29 221.673 10.32 222.063 10.38C222.453 10.43 222.798 10.51 223.098 10.62V10.05C223.098 9.45 222.918 8.98 222.558 8.64C222.198 8.29 221.688 8.115 221.028 8.115C220.598 8.115 220.183 8.195 219.783 8.355C219.393 8.505 218.978 8.725 218.538 9.015L218.058 8.085C218.568 7.735 219.078 7.475 219.588 7.305C220.098 7.125 220.628 7.035 221.178 7.035C222.178 7.035 222.968 7.315 223.548 7.875C224.128 8.425 224.418 9.195 224.418 10.185V13.5C224.418 13.66 224.448 13.78 224.508 13.86C224.578 13.93 224.688 13.97 224.838 13.98V15C224.708 15.02 224.593 15.035 224.493 15.045C224.403 15.055 224.328 15.06 224.268 15.06C223.958 15.06 223.723 14.975 223.563 14.805C223.413 14.635 223.328 14.455 223.308 14.265L223.278 13.77C222.938 14.21 222.493 14.55 221.943 14.79C221.393 15.03 220.848 15.15 220.308 15.15C219.788 15.15 219.323 15.045 218.913 14.835C218.503 14.615 218.183 14.325 217.953 13.965C217.723 13.595 217.608 13.185 217.608 12.735ZM222.708 13.29C222.828 13.15 222.923 13.01 222.993 12.87C223.063 12.72 223.098 12.595 223.098 12.495V11.52C222.788 11.4 222.463 11.31 222.123 11.25C221.783 11.18 221.448 11.145 221.118 11.145C220.448 11.145 219.903 11.28 219.483 11.55C219.073 11.81 218.868 12.17 218.868 12.63C218.868 12.88 218.933 13.125 219.063 13.365C219.203 13.595 219.403 13.785 219.663 13.935C219.933 14.085 220.263 14.16 220.653 14.16C221.063 14.16 221.453 14.08 221.823 13.92C222.193 13.75 222.488 13.54 222.708 13.29ZM225.659 16.845V13.83H225.824C226.044 13.83 226.244 13.765 226.424 13.635C226.614 13.505 226.779 13.28 226.919 12.96C227.069 12.63 227.189 12.18 227.279 11.61C227.369 11.04 227.429 10.315 227.459 9.435L227.534 7.17H232.859V13.83H233.924V16.845H232.754V15H226.829V16.845H225.659ZM227.669 13.83H231.539V8.34H228.704L228.659 9.555C228.629 10.405 228.569 11.12 228.479 11.7C228.399 12.27 228.289 12.725 228.149 13.065C228.019 13.405 227.859 13.66 227.669 13.83Z" fill="#8D8D8D" fill-opacity="0.8"/>
</svg>
